<svg width="30" height="29" viewBox="0 0 30 29" fill="none" xmlns="http://www.w3.org/2000/svg">
<path fill-rule="evenodd" clip-rule="evenodd" d="M15 1.51042C15.2404 1.51042 15.4709 1.6059 15.6408 1.77586C15.8108 1.94581 15.9063 2.17632 15.9063 2.41667V15.6757L17.9363 13.3062C18.0137 13.2157 18.1082 13.1414 18.2144 13.0875C18.3205 13.0336 18.4362 13.0011 18.555 12.9919C18.6737 12.9827 18.793 12.9969 18.9062 13.0339C19.0194 13.0708 19.1242 13.1297 19.2147 13.2071C19.3051 13.2845 19.3794 13.379 19.4334 13.4852C19.4873 13.5913 19.5198 13.7071 19.529 13.8258C19.5382 13.9445 19.5239 14.0638 19.487 14.177C19.4501 14.2902 19.3912 14.3951 19.3138 14.4855L15.6888 18.7147C15.6037 18.8142 15.4981 18.894 15.3792 18.9488C15.2603 19.0036 15.1309 19.0319 15 19.0319C14.8691 19.0319 14.7398 19.0036 14.6209 18.9488C14.502 18.894 14.3963 18.8142 14.3113 18.7147L10.6863 14.4855C10.6088 14.3951 10.55 14.2902 10.513 14.177C10.4761 14.0638 10.4618 13.9445 10.471 13.8258C10.4802 13.7071 10.5127 13.5913 10.5667 13.4852C10.6206 13.379 10.6949 13.2845 10.7854 13.2071C10.8758 13.1297 10.9806 13.0708 11.0938 13.0339C11.207 12.9969 11.3264 12.9827 11.4451 12.9919C11.5638 13.0011 11.6795 13.0336 11.7857 13.0875C11.8918 13.1414 11.9863 13.2157 12.0638 13.3062L14.0938 15.6745V2.41667C14.0938 2.17632 14.1893 1.94581 14.3592 1.77586C14.5292 1.6059 14.7597 1.51042 15 1.51042ZM8.95352 9.97117C9.19387 9.96989 9.42489 10.0641 9.59575 10.2332C9.76661 10.4022 9.86332 10.6322 9.8646 10.8726C9.86589 11.1129 9.77164 11.344 9.60259 11.5148C9.43354 11.6857 9.20354 11.7824 8.96319 11.7837C7.64248 11.7909 6.70602 11.8248 5.99431 11.9553C5.3104 12.0821 4.91285 12.2839 4.61923 12.5775C4.28452 12.9123 4.06702 13.3823 3.9474 14.2692C3.82535 15.1815 3.82294 16.391 3.82294 18.125V19.3333C3.82294 21.0685 3.82535 22.278 3.9474 23.1903C4.06702 24.0773 4.28573 24.5461 4.61923 24.882C4.95394 25.2155 5.42277 25.433 6.3109 25.5526C7.22198 25.6759 8.43273 25.6771 10.1667 25.6771H19.8334C21.5673 25.6771 22.7769 25.6759 23.6904 25.5526C24.5773 25.433 25.0461 25.2155 25.3808 24.8808C25.7155 24.5461 25.933 24.0773 26.0526 23.1903C26.1747 22.278 26.1771 21.0685 26.1771 19.3333V18.125C26.1771 16.391 26.1747 15.1815 26.0526 14.268C25.933 13.3823 25.7143 12.9123 25.3808 12.5775C25.086 12.2839 24.6896 12.0821 24.0057 11.9553C23.294 11.8248 22.3576 11.7909 21.0369 11.7837C20.9178 11.783 20.8001 11.759 20.6904 11.7128C20.5807 11.6667 20.4812 11.5994 20.3975 11.5148C20.3137 11.4302 20.2475 11.33 20.2026 11.2198C20.1576 11.1096 20.1348 10.9916 20.1354 10.8726C20.1361 10.7536 20.1601 10.6359 20.2063 10.5262C20.2524 10.4164 20.3197 10.3169 20.4043 10.2332C20.4889 10.1495 20.5892 10.0833 20.6993 10.0383C20.8095 9.99335 20.9275 9.97054 21.0465 9.97117C22.3539 9.97842 23.4426 10.0098 24.3332 10.173C25.2491 10.3421 26.0285 10.6623 26.6629 11.2967C27.3903 12.0229 27.702 12.94 27.8494 14.0275C27.9896 15.074 27.9896 16.4068 27.9896 18.0585V19.3998C27.9896 21.0528 27.9896 22.3844 27.8494 23.432C27.702 24.5195 27.3903 25.4354 26.6629 26.1628C25.9354 26.8903 25.0195 27.202 23.932 27.3494C22.8844 27.4896 21.5516 27.4896 19.8998 27.4896H10.1002C8.44844 27.4896 7.11565 27.4896 6.06802 27.3494C4.98052 27.2032 4.0646 26.8903 3.33719 26.1628C2.60977 25.4354 2.29802 24.5195 2.15181 23.432C2.01044 22.3844 2.01044 21.0516 2.01044 19.3998V18.0585C2.01044 16.4068 2.01044 15.074 2.15181 14.0263C2.29681 12.9388 2.61098 12.0229 3.33719 11.2955C3.97156 10.6623 4.75094 10.3409 5.66685 10.173C6.5574 10.0098 7.6461 9.97842 8.95352 9.97117Z" fill="#515151"/>
</svg>
