<svg width="32" height="24" viewBox="0 0 32 24" fill="none" xmlns="http://www.w3.org/2000/svg">
<circle cx="12.5" cy="12" r="11.5" fill="#FBE74E" stroke="#515151"/>
<path d="M18 0.5C20.1419 0.5 22.13 1.7249 23.6025 3.80371C25.0742 5.88131 26 8.7776 26 12C26 15.2224 25.0742 18.1187 23.6025 20.1963C22.13 22.2751 20.1419 23.5 18 23.5C15.8581 23.5 13.87 22.2751 12.3975 20.1963C10.9258 18.1187 10 15.2224 10 12C10 8.7776 10.9258 5.88131 12.3975 3.80371C13.87 1.7249 15.8581 0.5 18 0.5Z" fill="#FFCADB" stroke="#515151"/>
<path d="M24 0.5C25.8363 0.5 27.5744 1.69226 28.8789 3.7793C30.1791 5.85958 31 8.76501 31 12C31 15.235 30.1791 18.1404 28.8789 20.2207C27.5744 22.3077 25.8363 23.5 24 23.5C22.1637 23.5 20.4256 22.3077 19.1211 20.2207C17.8209 18.1404 17 15.235 17 12C17 8.76501 17.8209 5.85958 19.1211 3.7793C20.4256 1.69226 22.1637 0.5 24 0.5Z" fill="#9DC4F5" stroke="#515151"/>
</svg>
