<svg width="191" height="42" viewBox="0 0 191 42" fill="none" xmlns="http://www.w3.org/2000/svg">
<rect x="8" y="31.5" width="73" height="6" rx="3" fill="#59A3FF"/>
<path d="M35.9897 7.04325C37.9896 5.90813 40.4706 7.35269 40.4706 9.65229V24.4704C40.4706 26.1272 39.1274 27.4704 37.4706 27.4704H11.3632C8.28217 27.4704 7.20285 23.3822 9.88235 21.8613L35.9897 7.04325Z" fill="#59A3FF"/>
<path d="M56.615 7.00676C58.6148 5.88477 61.0829 7.33007 61.0829 9.6231V24.4704C61.0829 26.1272 59.7398 27.4704 58.0829 27.4704H31.62C28.5311 27.4704 27.4582 23.3655 30.152 21.854L56.615 7.00676Z" fill="#59A3FF"/>
<path d="M76.9439 7.00676C78.9437 5.88477 81.4119 7.33007 81.4119 9.6231V24.4704C81.4119 26.1272 80.0687 27.4704 78.4119 27.4704H51.9489C48.86 27.4704 47.7871 23.3655 50.4809 21.854L76.9439 7.00676Z" fill="#59A3FF"/>
<path d="M117.649 17.504C117.649 18.5493 117.397 19.5293 116.893 20.444C116.407 21.3587 115.633 22.096 114.569 22.656C113.523 23.216 112.198 23.496 110.593 23.496H107.317V31H103.397V11.456H110.593C112.105 11.456 113.393 11.7173 114.457 12.24C115.521 12.7627 116.314 13.4813 116.837 14.396C117.378 15.3107 117.649 16.3467 117.649 17.504ZM110.425 20.332C111.507 20.332 112.31 20.0893 112.833 19.604C113.355 19.1 113.617 18.4 113.617 17.504C113.617 15.6 112.553 14.648 110.425 14.648H107.317V20.332H110.425ZM129.168 15.264C130.344 15.264 131.389 15.5253 132.304 16.048C133.218 16.552 133.928 17.308 134.432 18.316C134.954 19.3053 135.216 20.5 135.216 21.9V31H131.296V22.432C131.296 21.2 130.988 20.2573 130.372 19.604C129.756 18.932 128.916 18.596 127.852 18.596C126.769 18.596 125.91 18.932 125.276 19.604C124.66 20.2573 124.352 21.2 124.352 22.432V31H120.432V10.28H124.352V17.42C124.856 16.748 125.528 16.2253 126.368 15.852C127.208 15.46 128.141 15.264 129.168 15.264ZM142.863 17.896C143.367 17.0747 144.021 16.4307 144.823 15.964C145.645 15.4973 146.578 15.264 147.623 15.264V19.38H146.587C145.355 19.38 144.422 19.6693 143.787 20.248C143.171 20.8267 142.863 21.8347 142.863 23.272V31H138.943V15.488H142.863V17.896ZM149.256 23.188C149.256 21.62 149.564 20.2293 150.18 19.016C150.814 17.8027 151.664 16.8693 152.728 16.216C153.81 15.5627 155.014 15.236 156.34 15.236C157.497 15.236 158.505 15.4693 159.364 15.936C160.241 16.4027 160.941 16.9907 161.464 17.7V15.488H165.412V31H161.464V28.732C160.96 29.46 160.26 30.0667 159.364 30.552C158.486 31.0187 157.469 31.252 156.312 31.252C155.005 31.252 153.81 30.916 152.728 30.244C151.664 29.572 150.814 28.6293 150.18 27.416C149.564 26.184 149.256 24.7747 149.256 23.188ZM161.464 23.244C161.464 22.292 161.277 21.48 160.904 20.808C160.53 20.1173 160.026 19.5947 159.392 19.24C158.757 18.8667 158.076 18.68 157.348 18.68C156.62 18.68 155.948 18.8573 155.332 19.212C154.716 19.5667 154.212 20.0893 153.82 20.78C153.446 21.452 153.26 22.2547 153.26 23.188C153.26 24.1213 153.446 24.9427 153.82 25.652C154.212 26.3427 154.716 26.8747 155.332 27.248C155.966 27.6213 156.638 27.808 157.348 27.808C158.076 27.808 158.757 27.6307 159.392 27.276C160.026 26.9027 160.53 26.38 160.904 25.708C161.277 25.0173 161.464 24.196 161.464 23.244ZM173.16 10.28V31H169.24V10.28H173.16ZM182.969 31.252C181.7 31.252 180.561 31.028 179.553 30.58C178.545 30.1133 177.743 29.488 177.145 28.704C176.567 27.92 176.249 27.052 176.193 26.1H180.141C180.216 26.6973 180.505 27.192 181.009 27.584C181.532 27.976 182.176 28.172 182.941 28.172C183.688 28.172 184.267 28.0227 184.677 27.724C185.107 27.4253 185.321 27.0427 185.321 26.576C185.321 26.072 185.06 25.6987 184.537 25.456C184.033 25.1947 183.221 24.9147 182.101 24.616C180.944 24.336 179.992 24.0467 179.245 23.748C178.517 23.4493 177.883 22.992 177.341 22.376C176.819 21.76 176.557 20.9293 176.557 19.884C176.557 19.0253 176.8 18.2413 177.285 17.532C177.789 16.8227 178.499 16.2627 179.413 15.852C180.347 15.4413 181.439 15.236 182.689 15.236C184.537 15.236 186.012 15.7027 187.113 16.636C188.215 17.5507 188.821 18.792 188.933 20.36H185.181C185.125 19.744 184.864 19.2587 184.397 18.904C183.949 18.5307 183.343 18.344 182.577 18.344C181.868 18.344 181.317 18.4747 180.925 18.736C180.552 18.9973 180.365 19.3613 180.365 19.828C180.365 20.3507 180.627 20.752 181.149 21.032C181.672 21.2933 182.484 21.564 183.585 21.844C184.705 22.124 185.629 22.4133 186.357 22.712C187.085 23.0107 187.711 23.4773 188.233 24.112C188.775 24.728 189.055 25.5493 189.073 26.576C189.073 27.472 188.821 28.2747 188.317 28.984C187.832 29.6933 187.123 30.2533 186.189 30.664C185.275 31.056 184.201 31.252 182.969 31.252Z" fill="#59A3FF"/>
</svg>
